<?xml version="1.0" encoding="UTF-8" standalone="no"?>
<svg
   sodipodi:docname="abraflexi-show-unsent.svg"
   inkscape:version="1.2.2 (b0a8486541, 2022-12-01)"
   id="svg8"
   version="1.1"
   viewBox="0 0 100 100"
   height="100mm"
   width="100mm"
   xmlns:inkscape="http://www.inkscape.org/namespaces/inkscape"
   xmlns:sodipodi="http://sodipodi.sourceforge.net/DTD/sodipodi-0.dtd"
   xmlns="http://www.w3.org/2000/svg"
   xmlns:svg="http://www.w3.org/2000/svg"
   xmlns:rdf="http://www.w3.org/1999/02/22-rdf-syntax-ns#"
   xmlns:cc="http://creativecommons.org/ns#"
   xmlns:dc="http://purl.org/dc/elements/1.1/"
   xmlns:ns="ns_ai">
  <defs
     id="defs2">
    <clipPath
       id="clipPath3444">
      <path
         id="path3446"
         d="M 11.52,162 C 11.52,81.677 135.307,16.56 288,16.56 440.693,16.56 564.48,81.678 564.48,162 564.48,242.322 440.693,307.44 288,307.44 135.307,307.44 11.52,242.32 11.52,162" />
    </clipPath>
    <radialGradient
       id="radialGradient3452"
       cx="0"
       cy="0"
       r="1"
       fx="0"
       fy="0"
       gradientTransform="matrix(363.06,0,0,-363.06,177.52,256.31)"
       gradientUnits="userSpaceOnUse"
       spreadMethod="pad">
      <stop
         id="stop3454"
         offset="0"
         stop-color="#aeb2d5" />
      <stop
         id="stop3456"
         offset="0.3"
         stop-color="#aeb2d5" />
      <stop
         id="stop3458"
         offset="0.75"
         stop-color="#484c89" />
      <stop
         id="stop3460"
         offset="1"
         stop-color="#484c89" />
    </radialGradient>
    <clipPath
       id="clipPath3468">
      <path
         id="path3470"
         d="M 0,324 H 576 V 0 H 0 Z" />
    </clipPath>
    <filter
       style="color-interpolation-filters:sRGB"
       inkscape:label="Drop Shadow"
       id="filter4622"
       x="-0.1215186"
       y="-0.21051334"
       width="1.29367"
       height="1.5087406">
      <feFlood
         flood-opacity="0.498039"
         flood-color="rgb(0,0,0)"
         result="flood"
         id="feFlood4612" />
      <feComposite
         in="flood"
         in2="SourceGraphic"
         operator="in"
         result="composite1"
         id="feComposite4614" />
      <feGaussianBlur
         in="composite1"
         stdDeviation="6"
         result="blur"
         id="feGaussianBlur4616" />
      <feOffset
         dx="6"
         dy="6"
         result="offset"
         id="feOffset4618" />
      <feComposite
         in="SourceGraphic"
         in2="offset"
         operator="over"
         result="fbSourceGraphic"
         id="feComposite4620" />
      <feColorMatrix
         result="fbSourceGraphicAlpha"
         in="fbSourceGraphic"
         values="0 0 0 -1 0 0 0 0 -1 0 0 0 0 -1 0 0 0 0 1 0"
         id="feColorMatrix4624" />
      <feFlood
         id="feFlood4626"
         flood-opacity="0.498039"
         flood-color="rgb(0,0,0)"
         result="flood"
         in="fbSourceGraphic" />
      <feComposite
         in2="fbSourceGraphic"
         id="feComposite4628"
         in="flood"
         operator="in"
         result="composite1" />
      <feGaussianBlur
         id="feGaussianBlur4630"
         in="composite1"
         stdDeviation="6"
         result="blur" />
      <feOffset
         id="feOffset4632"
         dx="6"
         dy="6"
         result="offset" />
      <feComposite
         in2="offset"
         id="feComposite4634"
         in="fbSourceGraphic"
         operator="over"
         result="fbSourceGraphic" />
      <feColorMatrix
         result="fbSourceGraphicAlpha"
         in="fbSourceGraphic"
         values="0 0 0 -1 0 0 0 0 -1 0 0 0 0 -1 0 0 0 0 1 0"
         id="feColorMatrix4636" />
      <feFlood
         id="feFlood4638"
         flood-opacity="0.498039"
         flood-color="rgb(0,0,0)"
         result="flood"
         in="fbSourceGraphic" />
      <feComposite
         in2="fbSourceGraphic"
         id="feComposite4640"
         in="flood"
         operator="in"
         result="composite1" />
      <feGaussianBlur
         id="feGaussianBlur4642"
         in="composite1"
         stdDeviation="6"
         result="blur" />
      <feOffset
         id="feOffset4644"
         dx="6"
         dy="6"
         result="offset" />
      <feComposite
         in2="offset"
         id="feComposite4646"
         in="fbSourceGraphic"
         operator="over"
         result="composite2" />
    </filter>
    <filter
       style="color-interpolation-filters:sRGB"
       inkscape:label="Blur"
       id="filter2058"
       x="-0.16193173"
       y="-0.0010942486"
       width="1.3238635"
       height="1.0021885">
      <feGaussianBlur
         stdDeviation="10.5635 0.01"
         result="fbSourceGraphic"
         id="feGaussianBlur2056" />
      <feColorMatrix
         result="fbSourceGraphicAlpha"
         in="fbSourceGraphic"
         values="0 0 0 -1 0 0 0 0 -1 0 0 0 0 -1 0 0 0 0 1 0"
         id="feColorMatrix2060" />
      <feGaussianBlur
         id="feGaussianBlur2062"
         stdDeviation="10.5635 0.01"
         result="blur"
         in="fbSourceGraphic" />
    </filter>
    <linearGradient
       id="XMLID_1_"
       gradientUnits="userSpaceOnUse"
       x1="168.0361"
       y1="168.21001"
       x2="83.149902"
       y2="83.324303">
      <stop
         offset="0"
         style="stop-color:#6D7BB0"
         id="stop164" />
      <stop
         offset="1"
         style="stop-color:#99ACD2"
         id="stop165" />
    </linearGradient>
    <linearGradient
       id="XMLID_2_"
       gradientUnits="userSpaceOnUse"
       x1="168.7178"
       y1="174.6357"
       x2="83.831703"
       y2="89.750298">
      <stop
         offset="0"
         style="stop-color:#6D7BB0"
         id="stop171" />
      <stop
         offset="1"
         style="stop-color:#99ACD2"
         id="stop172" />
    </linearGradient>
    <linearGradient
       id="XMLID_3_"
       gradientUnits="userSpaceOnUse"
       x1="126.9795"
       y1="130.9922"
       x2="233.56219"
       y2="237.576"
       gradientTransform="matrix(0.9929,-0.1191,-0.056,1.0138,7.7556,8.876)">
      <stop
         offset="0"
         style="stop-color:#D8E1ED"
         id="stop178" />
      <stop
         offset="1"
         style="stop-color:#5E76AA"
         id="stop179" />
    </linearGradient>
    <linearGradient
       id="XMLID_4_"
       gradientUnits="userSpaceOnUse"
       x1="126.0381"
       y1="144.81841"
       x2="126.0381"
       y2="77.567299">
      <stop
         offset="0"
         style="stop-color:#808DC2"
         id="stop185" />
      <stop
         offset="1"
         style="stop-color:#5E76AA"
         id="stop186" />
    </linearGradient>
    <linearGradient
       id="XMLID_5_"
       gradientUnits="userSpaceOnUse"
       x1="121.2769"
       y1="91.971703"
       x2="121.2769"
       y2="13.3879"
       gradientTransform="matrix(0.9929,-0.1191,-0.056,1.0138,7.7556,8.876)">
      <stop
         offset="0"
         style="stop-color:#DBE8F2"
         id="stop192" />
      <stop
         offset="0.2847"
         style="stop-color:#D9E6F1"
         id="stop193" />
      <stop
         offset="0.4359"
         style="stop-color:#D1DFED"
         id="stop194" />
      <stop
         offset="0.5557"
         style="stop-color:#C3D3E7"
         id="stop195" />
      <stop
         offset="0.659"
         style="stop-color:#B0C3DF"
         id="stop196" />
      <stop
         offset="0.7518"
         style="stop-color:#97ADD3"
         id="stop197" />
      <stop
         offset="0.837"
         style="stop-color:#7893C5"
         id="stop198" />
      <stop
         offset="0.9163"
         style="stop-color:#5473B5"
         id="stop199" />
      <stop
         offset="0.9891"
         style="stop-color:#2B50A2"
         id="stop200" />
      <stop
         offset="1"
         style="stop-color:#244A9F"
         id="stop201" />
    </linearGradient>
    <filter
       inkscape:collect="always"
       id="filter4068"
       x="-0.062022487"
       width="1.124045"
       y="-0.21230748"
       height="1.424615"
       color-interpolation-filters="sRGB">
      <feGaussianBlur
         inkscape:collect="always"
         stdDeviation="1.1885858"
         id="feGaussianBlur4070" />
    </filter>
    <filter
       inkscape:collect="always"
       id="filter3991"
       color-interpolation-filters="sRGB"
       x="-0.048741086"
       y="-0.078022829"
       width="1.0974822"
       height="1.1560457">
      <feGaussianBlur
         inkscape:collect="always"
         stdDeviation="0.58345283"
         id="feGaussianBlur3993" />
    </filter>
    <filter
       color-interpolation-filters="sRGB"
       inkscape:collect="always"
       id="filter4228"
       x="-0.093599998"
       width="1.1872"
       y="-0.093599998"
       height="1.1872">
      <feGaussianBlur
         inkscape:collect="always"
         stdDeviation="1.4799359"
         id="feGaussianBlur4230" />
    </filter>
    <filter
       color-interpolation-filters="sRGB"
       inkscape:collect="always"
       id="filter4214"
       x="-0.04723788"
       width="1.0944758"
       y="-0.029081515"
       height="1.058163">
      <feGaussianBlur
         inkscape:collect="always"
         stdDeviation="1.9895178"
         id="feGaussianBlur4216" />
    </filter>
    <clipPath
       clipPathUnits="userSpaceOnUse"
       id="clipPath911">
      <path
         d="M 64.09713,512 H 447.9029 c 22.2879,0 30.3701,-2.3206 38.5182,-6.6783 8.1482,-4.3577 14.5429,-10.7524 18.9006,-18.9006 C 509.6794,478.273 512,470.1908 512,447.9029 V 64.09713 C 512,41.80916 509.6794,33.72701 505.3217,25.57886 500.964,17.43071 494.5693,11.03599 486.4211,6.678318 478.273,2.32064 470.1908,0 447.9029,0 H 64.09713 C 41.80916,0 33.72701,2.32064 25.57886,6.678318 17.43071,11.03599 11.03599,17.43071 6.678318,25.57886 2.32064,33.72701 0,41.80916 0,64.09713 V 447.9029 c 0,22.2879 2.32064,30.3701 6.678318,38.5182 4.357672,8.1482 10.752392,14.5429 18.900542,18.9006 8.14815,4.3577 16.2303,6.6783 38.51827,6.6783 z"
         clip-rule="evenodd"
         id="path909" />
    </clipPath>
    <clipPath
       clipPathUnits="userSpaceOnUse"
       id="clipPath917">
      <path
         d="M 0,0 H 512 V 512 H 0 Z"
         id="path915" />
    </clipPath>
    <clipPath
       clipPathUnits="userSpaceOnUse"
       id="clipPath927">
      <path
         d="M 310.6214,362 424.7089,162.0939 H 310.6961 l -57.0086,99.4988 z"
         clip-rule="evenodd"
         id="path925" />
    </clipPath>
    <clipPath
       clipPathUnits="userSpaceOnUse"
       id="clipPath933">
      <path
         d="M 0,0 H 512 V 512 H 0 Z"
         id="path931" />
    </clipPath>
    <clipPath
       clipPathUnits="userSpaceOnUse"
       id="clipPath943">
      <path
         d="M 197.1006,362 83.51535,162.0939 H 197.1006 L 310.6214,362 Z"
         clip-rule="evenodd"
         id="path941" />
    </clipPath>
    <clipPath
       clipPathUnits="userSpaceOnUse"
       id="clipPath949">
      <path
         d="M 0,0 H 512 V 512 H 0 Z"
         id="path947" />
    </clipPath>
    <clipPath
       clipPathUnits="userSpaceOnUse"
       id="clipPath367">
      <path
         d="M 64.09713,512 H 447.9029 c 22.2879,0 30.3701,-2.3206 38.5182,-6.6783 8.1482,-4.3577 14.5429,-10.7524 18.9006,-18.9006 C 509.6794,478.273 512,470.1908 512,447.9029 V 64.09713 C 512,41.80916 509.6794,33.72701 505.3217,25.57886 500.964,17.43071 494.5693,11.03599 486.4211,6.678318 478.273,2.32064 470.1908,0 447.9029,0 H 64.09713 C 41.80916,0 33.72701,2.32064 25.57886,6.678318 17.43071,11.03599 11.03599,17.43071 6.678318,25.57886 2.32064,33.72701 0,41.80916 0,64.09713 V 447.9029 c 0,22.2879 2.32064,30.3701 6.678318,38.5182 4.357672,8.1482 10.752392,14.5429 18.900542,18.9006 8.14815,4.3577 16.2303,6.6783 38.51827,6.6783 z"
         clip-rule="evenodd"
         id="path365" />
    </clipPath>
    <clipPath
       clipPathUnits="userSpaceOnUse"
       id="clipPath373">
      <path
         d="M 0,0 H 512 V 512 H 0 Z"
         id="path371" />
    </clipPath>
    <clipPath
       clipPathUnits="userSpaceOnUse"
       id="clipPath383">
      <path
         d="M 310.6214,362 424.7089,162.0939 H 310.6961 l -57.0086,99.4988 z"
         clip-rule="evenodd"
         id="path381" />
    </clipPath>
    <clipPath
       clipPathUnits="userSpaceOnUse"
       id="clipPath389">
      <path
         d="M 0,0 H 512 V 512 H 0 Z"
         id="path387" />
    </clipPath>
    <filter
       style="color-interpolation-filters:sRGB"
       inkscape:label="Blur"
       id="filter2058-3"
       x="-0.16193173"
       y="-0.0010942486"
       width="1.3238635"
       height="1.0021885">
      <feGaussianBlur
         stdDeviation="10.5635 0.01"
         result="fbSourceGraphic"
         id="feGaussianBlur2056-6" />
      <feColorMatrix
         result="fbSourceGraphicAlpha"
         in="fbSourceGraphic"
         values="0 0 0 -1 0 0 0 0 -1 0 0 0 0 -1 0 0 0 0 1 0"
         id="feColorMatrix2060-7" />
      <feGaussianBlur
         id="feGaussianBlur2062-5"
         stdDeviation="10.5635 0.01"
         result="blur"
         in="fbSourceGraphic" />
    </filter>
    <linearGradient
       id="XMLID_1_-3"
       gradientUnits="userSpaceOnUse"
       x1="168.0361"
       y1="168.21001"
       x2="83.149902"
       y2="83.324303">
      <stop
         offset="0"
         style="stop-color:#6D7BB0"
         id="stop164-5" />
      <stop
         offset="1"
         style="stop-color:#99ACD2"
         id="stop165-6" />
    </linearGradient>
    <linearGradient
       id="XMLID_2_-2"
       gradientUnits="userSpaceOnUse"
       x1="168.7178"
       y1="174.6357"
       x2="83.831703"
       y2="89.750298">
      <stop
         offset="0"
         style="stop-color:#6D7BB0"
         id="stop171-9" />
      <stop
         offset="1"
         style="stop-color:#99ACD2"
         id="stop172-1" />
    </linearGradient>
    <linearGradient
       id="XMLID_3_-2"
       gradientUnits="userSpaceOnUse"
       x1="126.9795"
       y1="130.9922"
       x2="233.56219"
       y2="237.576"
       gradientTransform="matrix(0.9929,-0.1191,-0.056,1.0138,7.7556,8.876)">
      <stop
         offset="0"
         style="stop-color:#D8E1ED"
         id="stop178-7" />
      <stop
         offset="1"
         style="stop-color:#5E76AA"
         id="stop179-0" />
    </linearGradient>
    <linearGradient
       id="XMLID_4_-9"
       gradientUnits="userSpaceOnUse"
       x1="126.0381"
       y1="144.81841"
       x2="126.0381"
       y2="77.567299">
      <stop
         offset="0"
         style="stop-color:#808DC2"
         id="stop185-3" />
      <stop
         offset="1"
         style="stop-color:#5E76AA"
         id="stop186-6" />
    </linearGradient>
    <linearGradient
       id="XMLID_5_-0"
       gradientUnits="userSpaceOnUse"
       x1="121.2769"
       y1="91.971703"
       x2="121.2769"
       y2="13.3879"
       gradientTransform="matrix(0.9929,-0.1191,-0.056,1.0138,7.7556,8.876)">
      <stop
         offset="0"
         style="stop-color:#DBE8F2"
         id="stop192-6" />
      <stop
         offset="0.2847"
         style="stop-color:#D9E6F1"
         id="stop193-2" />
      <stop
         offset="0.4359"
         style="stop-color:#D1DFED"
         id="stop194-6" />
      <stop
         offset="0.5557"
         style="stop-color:#C3D3E7"
         id="stop195-1" />
      <stop
         offset="0.659"
         style="stop-color:#B0C3DF"
         id="stop196-8" />
      <stop
         offset="0.7518"
         style="stop-color:#97ADD3"
         id="stop197-7" />
      <stop
         offset="0.837"
         style="stop-color:#7893C5"
         id="stop198-9" />
      <stop
         offset="0.9163"
         style="stop-color:#5473B5"
         id="stop199-2" />
      <stop
         offset="0.9891"
         style="stop-color:#2B50A2"
         id="stop200-0" />
      <stop
         offset="1"
         style="stop-color:#244A9F"
         id="stop201-2" />
    </linearGradient>
    <clipPath
       clipPathUnits="userSpaceOnUse"
       id="clipPath399">
      <path
         d="M 197.1006,362 83.51535,162.0939 H 197.1006 L 310.6214,362 Z"
         clip-rule="evenodd"
         id="path397" />
    </clipPath>
    <clipPath
       clipPathUnits="userSpaceOnUse"
       id="clipPath405">
      <path
         d="M 0,0 H 512 V 512 H 0 Z"
         id="path403" />
    </clipPath>
  </defs>
  <sodipodi:namedview
     inkscape:window-maximized="1"
     inkscape:window-y="0"
     inkscape:window-x="0"
     inkscape:window-height="1120"
     inkscape:window-width="1920"
     showgrid="false"
     inkscape:document-rotation="0"
     inkscape:current-layer="g2598"
     inkscape:document-units="mm"
     inkscape:cy="177.53431"
     inkscape:cx="219.70818"
     inkscape:zoom="1.979899"
     inkscape:pageshadow="2"
     inkscape:pageopacity="0.0"
     borderopacity="1.0"
     bordercolor="#666666"
     pagecolor="#ffffff"
     id="base"
     inkscape:showpageshadow="2"
     inkscape:pagecheckerboard="0"
     inkscape:deskcolor="#d1d1d1" />
  <metadata
     id="metadata5">
    <rdf:RDF>
      <cc:Work
         rdf:about="">
        <dc:format>image/svg+xml</dc:format>
        <dc:type
           rdf:resource="http://purl.org/dc/dcmitype/StillImage" />
        <dc:title />
      </cc:Work>
    </rdf:RDF>
  </metadata>
  <g
     id="layer1"
     inkscape:groupmode="layer"
     inkscape:label="Vrstva 1" />
  <g
     inkscape:label="Vrstva 3"
     id="layer3"
     inkscape:groupmode="layer">
    <g
       transform="matrix(1.4033481,0,0,1.4033481,120.67578,7.0231252)"
       id="g2598">
      <g
         id="g1192">
        <g
           id="g359"
           transform="matrix(0.13830246,0,0,-0.13830246,-85.767686,66.029958)" />
        <g
           id="g361"
           transform="matrix(0.13830246,0,0,-0.13830246,-85.767686,66.029958)">
          <g
             id="g363"
             clip-path="url(#clipPath367)">
            <g
               id="g369"
               clip-path="url(#clipPath373)">
              <path
                 d="M -1,513 H 513 V -1 H -1 Z"
                 style="fill:#f6b102;fill-opacity:1;fill-rule:nonzero;stroke:none"
                 id="path375" />
            </g>
          </g>
        </g>
        <g
           id="g377"
           transform="matrix(0.13830246,0,0,-0.13830246,-85.767686,66.029958)">
          <g
             id="g379"
             clip-path="url(#clipPath383)">
            <g
               id="g385"
               clip-path="url(#clipPath389)">
              <path
                 d="M 252.6875,363 H 425.7089 V 161.0939 H 252.6875 Z"
                 style="fill:#fdebbf;fill-opacity:1;fill-rule:nonzero;stroke:none"
                 id="path391" />
            </g>
          </g>
        </g>
        <g
           transform="matrix(0.06614583,0,0,0.06614583,-56.516832,34.632538)"
           id="Layer_2"
           ns:layer="yes"
           ns:editable="no"
           ns:dimmedPercent="50"
           ns:rgbTrio="#FFFF4F004F00"
           style="overflow:visible;stroke:#000000">
          <path
             ns:knockout="Off"
             style="opacity:0.36;fill:none;stroke:none"
             d="M 256,256 H 0 V 0 h 256 z"
             id="path156" />
        </g>
        <g
           id="g2788"
           transform="matrix(1.4864439,0,0,1.4864439,28.147933,-18.983075)">
          <g
             style="overflow:visible;filter:url(#filter2058-3)"
             id="g2034"
             transform="matrix(0.06614583,0,0,0.06614583,-54.63146,34.632538)">
            <rect
               style="fill:#ff7f2a;stroke:#000000;stroke-width:0.4;stroke-opacity:0.0817026"
               id="rect2007"
               width="290.35632"
               height="21.564487"
               x="-218.87816"
               y="80.787163"
               ry="10.782244"
               transform="rotate(-10.15313)" />
            <rect
               ry="10.782244"
               y="112.78716"
               x="-218.87816"
               height="21.564487"
               width="290.35632"
               id="rect2018"
               style="fill:#d45500;stroke:#000000;stroke-width:0.4;stroke-opacity:0.0817026"
               transform="rotate(-10.15313)" />
            <rect
               ry="10.782244"
               y="48.78714"
               x="-218.87816"
               height="21.564487"
               width="290.35632"
               id="rect2020"
               style="fill:#ffb380;stroke:#000000;stroke-width:0.4;stroke-opacity:0.0817026"
               transform="rotate(-10.15313)" />
            <rect
               ry="10.782244"
               y="176.78712"
               x="-218.87816"
               height="21.564487"
               width="290.35632"
               id="rect2022"
               style="fill:#ff7f2a;stroke:#000000;stroke-width:0.4;stroke-opacity:0.0817026"
               transform="rotate(-10.15313)" />
            <rect
               style="fill:#d45500;stroke:#000000;stroke-width:0.4;stroke-opacity:0.0817026"
               id="rect2024"
               width="290.35632"
               height="21.564487"
               x="-218.87816"
               y="208.78712"
               ry="10.782244"
               transform="rotate(-10.15313)" />
            <rect
               style="fill:#ffb380;stroke:#000000;stroke-width:0.4;stroke-opacity:0.0817026"
               id="rect2026"
               width="290.35632"
               height="21.564487"
               x="-218.87816"
               y="144.78712"
               ry="10.782244"
               transform="rotate(-10.15313)" />
          </g>
          <g
             style="overflow:visible;stroke:#000000"
             ns:rgbTrio="#4F008000FFFF"
             ns:dimmedPercent="50"
             ns:layer="yes"
             id="Layer_1"
             transform="matrix(0.06614583,0,0,0.06614583,-54.63146,34.632538)">
            <path
               id="path158"
               d="M 236.071,3.411 230.976,10.625 22.298,48.94 1.743,234.753 6.419,240.172 224.868,200.061 240.747,8.83 Z"
               style="fill:#3a55a5;stroke:none"
               ns:knockout="Off" />
            <path
               id="path159"
               d="M 216.889,191.803 16.04,228.68 30.245,57.613 231.095,20.735 Z"
               style="fill:#3a55a5;stroke:none"
               ns:knockout="Off" />
            <path
               id="path160"
               d="M 230.718,21.166 122.726,152.67 30.709,58.563 Z"
               style="fill:#3a55a5;stroke:none"
               ns:knockout="Off" />
            <path
               id="path161"
               d="M 230.786,20.368 122.572,132.621 30.588,57.55 Z"
               style="fill:#3a55a5;stroke:none"
               ns:knockout="Off" />
            <path
               id="path162"
               d="M 29.79,58.581 13.911,249.813 232.361,209.702 248.24,18.471 Z"
               style="opacity:0.2;stroke:none"
               ns:knockout="Off" />
            <linearGradient
               y2="83.324303"
               x2="83.149902"
               y1="168.21001"
               x1="168.0361"
               gradientUnits="userSpaceOnUse"
               id="linearGradient2301">
              <stop
                 id="stop2297"
                 style="stop-color:#6D7BB0"
                 offset="0" />
              <stop
                 id="stop2299"
                 style="stop-color:#99ACD2"
                 offset="1" />
            </linearGradient>
            <path
               id="path169"
               d="M 231.39,4.271 226.301,5.206 17.622,43.521 1.743,234.753 220.192,194.642 236.071,3.411 Z"
               style="fill:url(#XMLID_1_-3);stroke:none"
               ns:knockout="Off" />
            <linearGradient
               y2="89.750298"
               x2="83.831703"
               y1="174.6357"
               x1="168.7178"
               gradientUnits="userSpaceOnUse"
               id="linearGradient2308">
              <stop
                 id="stop2304"
                 style="stop-color:#6D7BB0"
                 offset="0" />
              <stop
                 id="stop2306"
                 style="stop-color:#99ACD2"
                 offset="1" />
            </linearGradient>
            <path
               id="path176"
               d="m 228.074,17.594 c 0,0 -195.372,35.872 -204.112,37.477 -0.701,8.44 -13.662,164.537 -14.838,178.699 14.192,-2.605 197.644,-36.29 206.083,-37.84 0.7,-8.44 13.663,-164.535 14.836,-178.697 -0.933,0.172 -1.969,0.361 -1.969,0.361 z"
               style="fill:url(#XMLID_2_-2);stroke:none"
               ns:knockout="Off" />
            <linearGradient
               gradientTransform="matrix(0.9929,-0.1191,-0.056,1.0138,7.7556,8.876)"
               y2="237.576"
               x2="233.56219"
               y1="130.9922"
               x1="126.9795"
               gradientUnits="userSpaceOnUse"
               id="linearGradient2315">
              <stop
                 id="stop2311"
                 style="stop-color:#D8E1ED"
                 offset="0" />
              <stop
                 id="stop2313"
                 style="stop-color:#5E76AA"
                 offset="1" />
            </linearGradient>
            <path
               id="path183"
               d="M 212.213,186.384 11.364,223.261 25.569,52.194 226.419,15.316 Z"
               style="fill:url(#XMLID_3_-2);stroke:none"
               ns:knockout="Off" />
            <linearGradient
               y2="77.567299"
               x2="126.0381"
               y1="144.81841"
               x1="126.0381"
               gradientUnits="userSpaceOnUse"
               id="linearGradient2322">
              <stop
                 id="stop2318"
                 style="stop-color:#808DC2"
                 offset="0" />
              <stop
                 id="stop2320"
                 style="stop-color:#5E76AA"
                 offset="1" />
            </linearGradient>
            <path
               id="path190"
               d="M 226.042,15.747 118.05,147.251 26.034,53.145 Z"
               style="fill:url(#XMLID_4_-9);stroke:none"
               ns:knockout="Off" />
            <linearGradient
               gradientTransform="matrix(0.9929,-0.1191,-0.056,1.0138,7.7556,8.876)"
               y2="13.3879"
               x2="121.2769"
               y1="91.971703"
               x1="121.2769"
               gradientUnits="userSpaceOnUse"
               id="linearGradient2345">
              <stop
                 id="stop2325"
                 style="stop-color:#DBE8F2"
                 offset="0" />
              <stop
                 id="stop2327"
                 style="stop-color:#D9E6F1"
                 offset="0.2847" />
              <stop
                 id="stop2329"
                 style="stop-color:#D1DFED"
                 offset="0.4359" />
              <stop
                 id="stop2331"
                 style="stop-color:#C3D3E7"
                 offset="0.5557" />
              <stop
                 id="stop2333"
                 style="stop-color:#B0C3DF"
                 offset="0.659" />
              <stop
                 id="stop2335"
                 style="stop-color:#97ADD3"
                 offset="0.7518" />
              <stop
                 id="stop2337"
                 style="stop-color:#7893C5"
                 offset="0.837" />
              <stop
                 id="stop2339"
                 style="stop-color:#5473B5"
                 offset="0.9163" />
              <stop
                 id="stop2341"
                 style="stop-color:#2B50A2"
                 offset="0.9891" />
              <stop
                 id="stop2343"
                 style="stop-color:#244A9F"
                 offset="1" />
            </linearGradient>
            <path
               id="path205"
               d="M 226.11,14.949 117.896,127.202 25.913,52.131 Z"
               style="fill:url(#XMLID_5_-0);stroke:none"
               ns:knockout="Off" />
            <path
               id="path206"
               d="m 161.286,188.736 c 23.618,-4.43 44.142,-8.28 46.437,-8.708 0.28,-2.759 2.399,-23.476 4.826,-47.208 -14.987,40.14 -31.536,49.326 -51.263,55.916 z"
               style="opacity:0.3;fill:#ffffff;stroke:none"
               ns:knockout="Off" />
            <path
               id="path207"
               d="m 62.959,51.423 c -10.43,1.937 -18.476,3.431 -22.699,4.216 -0.077,0.061 -0.154,0.123 -0.228,0.182 15.398,12.567 70.439,57.488 77.371,63.146 1.525,-1.581 6.515,-6.759 13.474,-13.976 -7.203,0.413 -14.751,0.125 -19.948,-1.175 -11.482,-2.871 -42.648,-29.525 -49.62,-41.008 -3.549,-5.846 -1.356,-9.35 1.65,-11.385 z"
               style="opacity:0.4;fill:#ffffff;stroke:none"
               ns:knockout="Off" />
          </g>
        </g>
        <g
           id="g393"
           transform="matrix(0.13830246,0,0,-0.13830246,-85.767686,66.029958)">
          <g
             id="g395"
             clip-path="url(#clipPath399)">
            <g
               id="g401"
               clip-path="url(#clipPath405)">
              <path
                 d="M 82.51535,363 H 311.6214 V 161.0939 H 82.51535 Z"
                 style="fill:#ffffff;fill-opacity:1;fill-rule:nonzero;stroke:none"
                 id="path407" />
            </g>
          </g>
        </g>
      </g>
      <g
         id="BouncingQuestionMark and Shadow"
         transform="matrix(0.18853721,0,0,0.18853721,-138.41431,-112.3535)"
         style="display:inline">
        <path
           sodipodi:nodetypes="sssss"
           inkscape:connector-curvature="0"
           inkscape:label="#path4350"
           id="Shadow"
           d="m 503.38583,936.04362 c 0,3.71031 -10.29591,6.71811 -22.99655,6.71811 -12.70064,0 -22.99654,-3.0078 -22.99654,-6.71811 0,-3.71029 10.2959,-6.71809 22.99654,-6.71809 12.70064,0 22.99654,3.0078 22.99655,6.71809 z"
           style="color:#000000;overflow:visible;visibility:visible;opacity:0.8;fill:#808080;fill-opacity:1;fill-rule:nonzero;stroke:none;stroke-width:3.20793;marker:none;filter:url(#filter4068);enable-background:accumulate">
          <animate
             repeatCount="1"
             values="m 503.38583,936.04362 c 0,3.71031 -10.29591,6.71811 -22.99655,6.71811 -12.70064,0 -22.99654,-3.0078 -22.99654,-6.71811 0,-3.71029 10.2959,-6.71809 22.99654,-6.71809 12.70064,0 22.99654,3.0078 22.99655,6.71809 z; m 490.3452,934.96831 c -0.0557,6.0613 -9.02703,8.96879 -14.3632,8.96879 -5.54837,0 -14.53681,-4.17891 -14.36319,-8.96879 0.21223,-5.85411 8.17816,-9.181 14.36319,-8.96878 5.12094,0.17571 14.41507,3.32313 14.3632,8.96878 z; m 503.38583,936.04362 c 0,3.71031 -10.29591,6.71811 -22.99655,6.71811 -12.70064,0 -22.99654,-3.0078 -22.99654,-6.71811 0,-3.71029 10.2959,-6.71809 22.99654,-6.71809 12.70064,0 22.99654,3.0078 22.99655,6.71809 z"
             attributeName="d"
             begin="animatePigHeadUpDown.begin"
             dur="4500ms"
             id="animate4430" />
        </path>
        <path
           inkscape:label="#path4350-1"
           sodipodi:nodetypes="sssss"
           id="Shadow2"
           d="m 490.3452,934.96831 c -0.0557,6.0613 -9.02703,8.96879 -14.3632,8.96879 -5.54837,0 -14.53681,-4.17891 -14.36319,-8.96879 0.21223,-5.85411 8.17816,-9.181 14.36319,-8.96878 5.12094,0.17571 14.41507,3.32313 14.3632,8.96878 z"
           style="color:#000000;display:none;overflow:visible;visibility:visible;opacity:0.8;fill:#999999;fill-opacity:1;fill-rule:nonzero;stroke:none;stroke-width:2;marker:none;filter:url(#filter3991);enable-background:accumulate"
           inkscape:connector-curvature="0"
           sodipodi:insensitive="true" />
        <g
           id="ObjectGroup">
          <animateTransform
             keySplinesH="0.8 0 0.89 1;0.5 0.5 0.5 0.5;0 1 0.95 1"
             keySplines="0.9 0 1 0.81;0.5 0.5 0.5 0.5;0 1 0.95 1"
             calcMode="spline"
             keyTimes="0;.45;.55;1"
             type="translate"
             fill="freeze"
             dur="4500ms"
             begin="0ms;animatePigHeadUpDown.end"
             attributeName="transform"
             id="animatePigHeadUpDown"
             repeatCount="1"
             additiveH="sum"
             values="0 -200;0 0;0 0;0 -200"
             additive="sum" />
          <g
             id="Object">
            <animateTransform
               additive="sum"
               values="0 0;-120 95;0 0"
               additiveH="sum"
               repeatCount="1"
               id="animatePigHeadBounce"
               attributeName="transform"
               begin="animatePigHeadUpDown.begin+2000ms"
               dur="750ms"
               fill="freeze"
               type="translate" />
            <animateTransform
               type="scale"
               fill="freeze"
               dur="750ms"
               begin="animatePigHeadBounce.begin"
               attributeName="transform"
               id="animateTransform4276"
               repeatCount="1"
               additiveH="sum"
               values="1 1;1.25 .9;1 1"
               additive="sum" />
            <g
               id="TheObject"
               transform="translate(330.65888,715.85949)">
              <circle
                 style="fill:#555753;fill-opacity:1;stroke:none;filter:url(#filter4228)"
                 id="circle4218"
                 cx="211.89894"
                 cy="206.50879"
                 r="18.973537"
                 transform="matrix(0.83170296,0,0,0.83170296,-32.881314,33.859868)" />
              <path
                 style="fill:#555753;fill-opacity:1;stroke:none;filter:url(#filter4214)"
                 d="m 204.0605,18.885176 c -27.91275,-6.28e-4 -50.54093,22.626772 -50.54127,50.539522 0.007,3.017368 0.37541,6.012702 0.82723,8.996058 2.2692,12.79838 11.93913,20.03753 21.23791,20.56317 11.4984,1.6e-4 20.82,-9.32065 20.8208,-20.81905 -0.0109,-9.403681 -6.32369,-17.632853 -15.40353,-20.079454 1.7202,-5.815769 6.20504,-12.415813 16.81087,-17.327886 31.76975,-11.693272 63.23515,18.338313 42.43027,48.64497 -11.09308,22.283224 -67.66075,44.590774 -48.10517,84.963944 4.3656,9.73863 15.36613,9.50209 20.36879,7.79983 5.00265,-1.70226 15.99388,-15.61802 6.49778,-33.65816 -9.4961,-18.04013 35.1069,-43.15191 35.59585,-79.083422 C 254.59968,41.51263 231.97257,18.885512 204.0605,18.885176 Z"
                 id="path4200"
                 inkscape:connector-curvature="0"
                 sodipodi:nodetypes="ccccccccczzcc"
                 transform="matrix(0.83170296,0,0,0.83170296,-32.881314,33.859868)" />
              <path
                 sodipodi:nodetypes="ccccccccczzcc"
                 inkscape:connector-curvature="0"
                 id="path4174"
                 d="m 135.90264,47.387936 c -23.21512,-5.21e-4 -42.035049,18.818754 -42.035329,42.033871 0.0058,2.509554 0.312234,5.000782 0.688015,7.482047 1.887296,10.644456 9.929804,16.665276 17.663634,17.102456 9.56326,1.2e-4 17.31605,-7.75201 17.31672,-17.315272 -0.009,-7.821069 -5.25943,-14.665296 -12.81116,-16.700141 1.43069,-4.836992 5.16074,-10.326269 13.98164,-14.411654 26.423,-9.72533 52.59287,15.252029 35.28939,40.458167 -9.22615,18.53303 -56.27365,37.08628 -40.00922,70.66477 3.63088,8.09965 12.78007,7.90291 16.94079,6.48713 4.16072,-1.41577 13.30216,-12.98954 5.40422,-27.99358 -7.89794,-15.00404 29.19852,-35.88957 29.60517,-65.773923 -2.9e-4,-23.214551 -18.81932,-42.033591 -42.03387,-42.033871 z"
                 style="fill:#fcaf3e;fill-opacity:1;stroke:#f57900;stroke-width:1.49262;stroke-linecap:round;stroke-linejoin:round;stroke-miterlimit:4;stroke-dasharray:none;stroke-dashoffset:0;stroke-opacity:1" />
              <circle
                 r="15.780347"
                 cy="204.21318"
                 cx="141.48813"
                 id="circle4176"
                 style="fill:#fcaf3e;fill-opacity:1;stroke:#f57900;stroke-width:1.49262;stroke-linecap:round;stroke-linejoin:round;stroke-miterlimit:4;stroke-dasharray:none;stroke-dashoffset:0;stroke-opacity:1" />
              <path
                 style="fill:#ffffff;fill-opacity:1;stroke:none"
                 d="m 113.23108,81.802122 a 14.120538,14.120538 0 0 0 -5.97947,1.345208 16.623201,16.623201 0 0 1 1.18904,-0.04246 16.623201,16.623201 0 0 1 16.62333,16.623325 16.623201,16.623201 0 0 1 -0.74111,4.906855 14.120538,14.120538 0 0 0 3.02879,-8.713714 14.120538,14.120538 0 0 0 -14.12058,-14.119207 z"
                 id="path4178"
                 inkscape:connector-curvature="0" />
              <path
                 style="fill:#ffffff;fill-opacity:1;stroke:none"
                 d="m 136.06928,48.633059 c -7.90025,-1.78e-4 -15.27943,2.223542 -21.55235,6.074453 5.26267,-2.359441 11.09084,-3.68148 17.23168,-3.681341 23.29328,2.8e-4 42.17649,18.881908 42.17678,42.175199 -0.40804,29.98572 -37.63054,50.94298 -29.70582,65.9979 4.60723,8.75256 3.43293,16.33661 0.82427,21.43597 4.30717,-3.58334 9.82242,-13.65457 3.22376,-26.19031 -7.75169,-14.72624 28.65781,-35.22556 29.05694,-64.556608 -2.9e-4,-22.784747 -18.47052,-41.254989 -41.25526,-41.255263 z"
                 id="path4183"
                 inkscape:connector-curvature="0"
                 sodipodi:nodetypes="ccccscscc" />
              <path
                 style="fill:#ffffff;fill-opacity:1;stroke:none"
                 d="m 142.12061,190.35928 a 13.733432,13.733432 0 0 0 -4.50267,0.77612 15.470913,15.470913 0 0 1 14.99382,15.44621 15.470913,15.470913 0 0 1 -2.81186,8.88094 13.733432,13.733432 0 0 0 6.05492,-11.37047 13.733432,13.733432 0 0 0 -13.73421,-13.7328 z"
                 id="circle4188"
                 inkscape:connector-curvature="0" />
              <path
                 style="fill:#f57900;fill-opacity:1;stroke:none"
                 d="m 129.06803,197.72687 a 13.912598,13.912598 0 0 0 -1.87753,6.95311 13.912598,13.912598 0 0 0 13.91338,13.9134 13.912598,13.912598 0 0 0 8.17903,-2.67957 15.487467,15.487467 0 0 1 -5.17151,0.90654 15.487467,15.487467 0 0 1 -15.48733,-15.48731 15.487467,15.487467 0 0 1 0.44396,-3.60617 z"
                 id="circle4195"
                 inkscape:connector-curvature="0" />
              <g
                 id="RightEye">
                <ellipse
                   ry="16.956266"
                   rx="11.194427"
                   cy="47.460037"
                   cx="114.93397"
                   id="path4236"
                   style="fill:#ffffff;fill-opacity:1;stroke:#2e3436;stroke-width:1.75956;stroke-linecap:round;stroke-linejoin:round;stroke-miterlimit:4;stroke-dasharray:none;stroke-dashoffset:0;stroke-opacity:1" />
                <path
                   id="path4240"
                   d="m 119.94614,41.761127 c 0,2.63666 -2.13744,4.774095 -4.7741,4.774095 -2.63666,0 -4.77409,-2.137435 -4.77409,-4.774095 0,-2.636659 2.13743,-4.774094 4.77409,-4.774094 2.63666,0 4.7741,2.137435 4.7741,4.774094 z"
                   style="fill:#000000;fill-opacity:1;stroke:none"
                   inkscape:connector-curvature="0">
                  <animateTransform
                     type="translate"
                     fill="freeze"
                     dur="750ms"
                     begin="animatePigHeadUpDown.begin+2000ms"
                     attributeName="transform"
                     id="animateTransform3997"
                     repeatCount="1"
                     additiveH="sum"
                     values="0 0;0 20;0 0"
                     additive="sum" />
                </path>
              </g>
              <g
                 id="LeftEye">
                <ellipse
                   style="fill:#ffffff;fill-opacity:1;stroke:#2e3436;stroke-width:1.75956;stroke-linecap:round;stroke-linejoin:round;stroke-miterlimit:4;stroke-dasharray:none;stroke-dashoffset:0;stroke-opacity:1"
                   id="ellipse4238"
                   cx="149.91246"
                   cy="41.776085"
                   rx="11.194427"
                   ry="16.956266" />
                <path
                   id="circle4242"
                   d="m 155.66953,35.258484 c 0,2.636659 -2.13744,4.774094 -4.7741,4.774094 -2.63666,0 -4.77409,-2.137435 -4.77409,-4.774094 0,-2.636659 2.13743,-4.774094 4.77409,-4.774094 2.63666,0 4.7741,2.137435 4.7741,4.774094 z"
                   style="fill:#000000;fill-opacity:1;stroke:none"
                   inkscape:connector-curvature="0">
                  <animateTransform
                     additive="sum"
                     values="0 0;0 20;0 0"
                     additiveH="sum"
                     repeatCount="1"
                     id="animateTransform4000"
                     attributeName="transform"
                     begin="animatePigHeadUpDown.begin+2000ms"
                     dur="750ms"
                     fill="freeze"
                     type="translate" />
                </path>
              </g>
              <g
                 id="RightEyeBrow">
                <path
                   id="ellipse4244"
                   d="m 106.96402,27.387194 c 3.5702,-4.750371 8.73138,-5.568815 12.87371,-2.041473"
                   style="fill:none;stroke:#2e3436;stroke-width:1.75956;stroke-linecap:round;stroke-linejoin:round;stroke-miterlimit:4;stroke-dashoffset:0;stroke-opacity:1"
                   inkscape:connector-curvature="0" />
              </g>
              <g
                 id="LeftEyeBrow">
                <path
                   id="path4246"
                   d="m 141.70971,22.168864 c 3.5702,-4.750372 8.73138,-5.568816 12.87371,-2.041474"
                   style="fill:none;stroke:#2e3436;stroke-width:1.75956;stroke-linecap:round;stroke-linejoin:round;stroke-miterlimit:4;stroke-dashoffset:0;stroke-opacity:1"
                   inkscape:connector-curvature="0" />
              </g>
            </g>
          </g>
        </g>
      </g>
    </g>
  </g>
  <g
     inkscape:label="Vrstva 2"
     id="layer2"
     inkscape:groupmode="layer" />
</svg>
